<?xml version="1.0" standalone="no"?>
<!DOCTYPE svg PUBLIC "-//W3C//DTD SVG 20010904//EN"
 "http://www.w3.org/TR/2001/REC-SVG-20010904/DTD/svg10.dtd">
<svg version="1.0" xmlns="http://www.w3.org/2000/svg"
 width="640.000000pt" height="640.000000pt" viewBox="0 0 640.000000 640.000000"
 preserveAspectRatio="xMidYMid meet">

<g transform="translate(0.000000,640.000000) scale(0.100000,-0.100000)"
fill="#000000" stroke="none">
<path d="M1 4973 c1 -1421 1 -1427 19 -1308 104 688 405 1295 884 1783 263
269 527 463 844 622 348 174 591 249 1042 323 14 2 -608 5 -1382 6 l-1408 1 1
-1427z"/>
<path d="M3645 6388 c722 -109 1361 -435 1856 -945 237 -245 413 -492 564
-794 176 -350 278 -695 328 -1104 2 -16 5 619 6 1413 l1 1442 -1407 -1 c-890
-1 -1386 -5 -1348 -11z"/>
<path d="M1602 5291 c25 -16 54 -42 65 -57 42 -62 46 -87 40 -252 -4 -86 -16
-407 -27 -712 -48 -1267 -43 -1191 -74 -1255 -26 -52 -49 -75 -122 -122 -15
-9 20 -12 171 -12 151 0 186 3 171 12 -76 48 -112 104 -122 189 -3 29 1 229
10 443 9 215 23 557 31 760 23 574 34 787 39 792 3 3 46 -77 96 -178 130 -259
477 -943 576 -1135 l83 -160 -17 -46 c-14 -39 -14 -52 -3 -89 16 -52 60 -96
107 -105 33 -6 39 -14 85 -107 l51 -101 32 85 c17 47 47 109 65 139 l33 54
-473 943 -474 943 -194 0 -195 0 46 -29z"/>
<path d="M3791 5278 c-10 -24 -107 -243 -216 -488 -108 -245 -215 -488 -238
-540 -41 -97 -61 -123 -198 -268 -38 -40 -69 -77 -69 -82 0 -6 -6 -10 -13 -10
-7 0 -21 -15 -30 -32 l-17 -33 6 40 c3 22 12 73 19 113 19 108 7 184 -49 298
-64 130 -73 168 -58 246 6 34 16 64 21 66 5 2 35 19 67 38 33 20 79 43 104 51
67 22 109 51 126 86 l15 32 -22 -28 c-18 -24 -67 -57 -84 -57 -3 0 0 10 6 23
11 21 11 21 -7 6 -35 -29 -43 -31 -37 -7 10 41 44 78 96 108 29 16 48 30 42
30 -5 0 -34 -14 -63 -31 -54 -30 -112 -104 -112 -141 0 -17 -91 -78 -118 -78
-8 0 -2 21 18 59 21 42 43 69 74 90 57 40 93 83 105 128 6 20 9 39 6 41 -2 2
-8 -13 -14 -34 -12 -44 -65 -109 -81 -99 -6 4 -8 16 -5 28 4 14 -1 10 -15 -11
-13 -22 -26 -32 -35 -28 -11 4 -15 -3 -15 -27 0 -40 -12 -59 -32 -52 -13 5
-15 26 -14 120 1 113 1 114 -28 144 -17 17 -34 31 -40 31 -6 0 0 -7 13 -16 29
-21 51 -72 51 -119 0 -35 -19 -51 -21 -17 0 10 -5 6 -11 -11 -7 -20 -15 -27
-27 -22 -9 3 -3 -8 14 -25 40 -42 49 -129 23 -213 -10 -32 -19 -78 -20 -103
-2 -24 -7 -42 -13 -41 -18 6 -76 136 -76 169 0 18 3 56 7 85 7 60 -9 101 -62
160 l-35 38 40 -62 c39 -64 58 -124 45 -145 -5 -8 -12 -2 -20 17 -13 29 -13
29 -14 5 0 -18 -3 -21 -9 -11 -7 11 -9 11 -13 0 -3 -9 -11 -3 -21 16 -9 17
-16 26 -17 20 0 -13 37 -74 60 -100 10 -11 28 -50 39 -86 12 -36 46 -103 76
-149 30 -47 55 -89 55 -95 0 -5 -26 18 -57 51 -32 33 -88 82 -125 109 -37 28
-66 55 -63 62 6 17 -16 28 -25 13 -11 -19 -29 -3 -23 20 6 22 -7 26 -25 8 -10
-10 -12 -8 -11 7 4 38 -1 65 -11 65 -6 0 -10 -6 -9 -12 1 -7 -1 -21 -5 -30 -4
-9 -6 -27 -4 -40 2 -17 8 -22 26 -20 17 3 22 -2 22 -19 0 -16 5 -20 19 -16 12
3 22 -1 25 -9 3 -8 15 -14 27 -14 48 0 242 -188 289 -280 18 -35 40 -170 27
-170 -3 0 -18 21 -33 48 -15 26 -55 76 -89 112 -38 40 -68 83 -79 112 -16 45
-85 118 -109 118 -6 0 9 -14 32 -31 24 -17 41 -36 38 -43 -3 -6 1 -20 9 -31
21 -28 18 -31 -26 -30 -25 1 -51 10 -71 24 -18 13 -28 18 -24 11 14 -22 99
-70 125 -70 18 0 41 -15 73 -47 26 -26 47 -50 47 -55 0 -4 -26 -5 -57 -2 -51
6 -65 13 -110 54 -52 48 -110 71 -170 69 -18 0 -8 -5 27 -13 61 -13 90 -27
110 -51 18 -22 6 -29 -27 -17 -62 22 -66 22 -21 -2 68 -37 72 -50 12 -43 -48
5 -48 5 -19 -8 35 -17 79 -19 104 -6 11 6 48 5 100 -2 l84 -12 29 -53 c32 -56
37 -101 19 -169 -6 -21 -13 -51 -16 -67 l-6 -30 -30 50 c-35 60 -37 54 -4 -18
34 -74 52 -155 37 -170 -9 -9 -12 -9 -13 3 -5 98 -65 188 -134 203 -29 6 -28
5 7 -14 34 -19 88 -82 88 -104 0 -5 -12 1 -27 15 l-27 24 23 -33 c13 -18 20
-36 17 -39 -3 -3 -1 -12 5 -20 9 -9 8 -13 0 -13 -6 0 -32 20 -57 45 -25 25
-40 37 -35 27 14 -27 79 -82 96 -82 25 0 44 -30 56 -90 6 -33 14 -60 18 -60 3
0 6 48 7 108 1 124 12 173 54 230 28 39 34 42 75 42 25 0 45 -1 45 -3 0 -1
-29 -67 -64 -147 -35 -80 -62 -147 -60 -149 2 -2 20 10 41 27 30 23 51 58 99
163 42 92 66 133 75 130 8 -3 35 -7 60 -9 51 -4 109 19 144 58 13 14 1 9 -34
-14 -56 -38 -111 -48 -111 -21 0 8 4 15 9 15 5 0 11 7 15 15 5 13 2 14 -17 4
-22 -12 -22 -12 -3 10 28 31 12 26 -29 -10 -39 -34 -44 -28 -18 25 9 20 29 40
45 47 28 11 88 72 88 88 0 5 -20 -12 -45 -37 -25 -25 -48 -43 -50 -40 -12 11
28 98 47 104 15 4 17 8 8 14 -13 8 -3 33 264 630 76 168 141 309 145 313 4 4
11 -72 15 -170 32 -817 44 -1105 48 -1108 8 -8 203 -23 210 -16 5 4 -1 245
-12 536 -30 816 -30 801 2 855 25 43 76 90 97 90 5 0 13 5 16 10 4 7 -57 10
-175 10 l-181 0 -18 -42z m-572 -1295 c-21 -56 -28 -63 -69 -63 -22 0 -40 4
-40 9 0 5 21 27 47 49 51 44 78 46 62 5z"/>
<path d="M3187 5194 c-8 -8 1 -24 14 -24 5 0 9 7 9 15 0 15 -12 20 -23 9z"/>
<path d="M3217 5153 c-12 -11 -8 -23 8 -23 8 0 15 7 15 15 0 16 -12 20 -23 8z"/>
<path d="M3170 5135 c0 -9 5 -15 11 -13 6 2 11 8 11 13 0 5 -5 11 -11 13 -6 2
-11 -4 -11 -13z"/>
<path d="M3126 5122 c-3 -5 5 -17 16 -27 20 -16 20 -19 5 -30 -22 -16 -22 -38
1 -33 9 2 16 10 14 17 -1 7 3 20 9 27 10 12 8 19 -9 34 -24 22 -28 24 -36 12z"/>
<path d="M3210 5094 c0 -8 5 -12 10 -9 6 3 10 10 10 16 0 5 -4 9 -10 9 -5 0
-10 -7 -10 -16z"/>
<path d="M3100 5064 c0 -9 5 -14 12 -12 18 6 21 28 4 28 -9 0 -16 -7 -16 -16z"/>
<path d="M3185 5070 c-4 -6 -3 -16 3 -22 6 -6 12 -6 17 2 4 6 3 16 -3 22 -6 6
-12 6 -17 -2z"/>
<path d="M3097 5024 c-3 -3 -3 -12 0 -20 3 -8 0 -14 -6 -14 -6 0 -11 5 -11 10
0 6 -4 10 -10 10 -17 0 -11 -21 11 -39 21 -16 21 -17 -15 -54 -20 -21 -36 -32
-36 -25 -1 17 -39 -53 -39 -72 -1 -13 0 -13 9 0 9 13 10 13 10 0 0 -8 9 3 19
26 10 22 37 56 59 75 33 28 39 38 30 53 -7 12 -7 21 1 29 6 6 11 15 11 19 0 9
-24 11 -33 2z"/>
<path d="M3130 4995 c0 -8 5 -15 10 -15 6 0 10 7 10 15 0 8 -4 15 -10 15 -5 0
-10 -7 -10 -15z"/>
<path d="M3030 4961 c0 -6 5 -13 10 -16 6 -4 8 -12 4 -18 -3 -7 1 -3 10 7 8
10 13 23 10 27 -7 12 -34 11 -34 0z"/>
<path d="M2712 4830 c0 -19 2 -27 5 -17 2 9 2 25 0 35 -3 9 -5 1 -5 -18z"/>
<path d="M2972 4740 c0 -14 2 -19 5 -12 2 6 2 18 0 25 -3 6 -5 1 -5 -13z"/>
<path d="M2502 4673 c5 -25 28 -28 28 -4 0 12 -6 21 -16 21 -9 0 -14 -7 -12
-17z"/>
<path d="M2545 4643 c-29 -7 -41 -21 -28 -34 16 -16 63 0 63 22 0 20 -1 20
-35 12z"/>
<path d="M2545 4580 c-11 -17 5 -32 21 -19 7 6 11 15 8 20 -7 12 -21 11 -29
-1z"/>
<path d="M2602 4509 c2 -6 8 -10 13 -10 5 0 11 4 13 10 2 6 -4 11 -13 11 -9 0
-15 -5 -13 -11z"/>
<path d="M3070 4431 c0 -11 -5 -21 -11 -23 -19 -6 -20 -58 -2 -58 8 0 13 6 10
13 -3 7 4 24 14 38 23 29 24 49 4 49 -8 0 -15 -9 -15 -19z"/>
<path d="M3087 4368 c-4 -12 -4 -33 -1 -45 4 -14 2 -23 -5 -23 -6 0 -11 7 -11
15 0 8 -7 15 -15 15 -8 0 -15 -7 -15 -15 0 -8 5 -15 10 -15 14 0 12 -27 -2
-33 -10 -3 -10 -7 -1 -17 9 -10 18 -5 42 21 33 36 38 49 20 49 -8 0 -10 12 -6
35 6 38 -7 49 -16 13z"/>
<path d="M3220 4327 c0 -1 9 -20 20 -42 23 -45 25 -69 8 -116 -12 -33 -12 -34
-18 -9 -6 23 -8 21 -21 -20 -12 -41 -13 -42 -17 -17 -2 15 -8 27 -14 27 -7 0
-9 17 -5 48 4 30 3 40 -3 27 -14 -32 -11 -92 5 -132 15 -36 15 -36 37 -17 30
27 58 92 58 137 0 33 -32 117 -45 117 -3 0 -5 -1 -5 -3z"/>
<path d="M3096 4263 c-11 -11 -6 -23 9 -23 8 0 15 4 15 9 0 13 -16 22 -24 14z"/>
<path d="M3080 4220 c0 -5 -7 -10 -15 -10 -8 0 -15 -4 -15 -10 0 -12 30 -13
49 -1 7 5 10 14 7 20 -9 14 -26 14 -26 1z"/>
<path d="M2797 4094 c-8 -8 1 -24 14 -24 5 0 9 7 9 15 0 15 -12 20 -23 9z"/>
<path d="M2840 4050 c0 -6 -11 -8 -27 -4 l-28 7 22 -21 c14 -14 19 -29 16 -42
-3 -11 -1 -20 5 -20 5 0 13 12 16 28 4 15 9 35 12 45 3 9 1 17 -5 17 -6 0 -11
-5 -11 -10z"/>
<path d="M2862 3964 c3 -43 5 -47 31 -50 18 -2 27 2 27 12 0 9 -7 14 -17 12
-11 -2 -18 4 -18 17 -3 46 -6 55 -15 55 -7 0 -10 -19 -8 -46z"/>
<path d="M3660 3689 c-376 -42 -652 -228 -751 -509 -19 -53 -23 -86 -23 -180
0 -131 17 -194 79 -287 l35 -53 228 0 227 0 -79 35 c-145 63 -239 157 -272
272 -12 40 -15 84 -12 158 3 97 6 107 45 187 119 240 407 375 755 354 256 -15
465 -78 630 -189 53 -35 57 -43 30 -51 -10 -4 -32 -20 -48 -37 -25 -27 -29
-38 -29 -90 0 -57 2 -63 37 -95 32 -29 45 -34 86 -34 127 0 179 134 92 234
-65 74 -244 174 -400 224 -178 56 -442 82 -630 61z"/>
<path d="M3864 3529 c-3 -6 -3 -66 0 -132 14 -244 11 -338 -11 -387 -18 -41
-60 -87 -109 -117 -15 -9 37 -12 249 -12 147 -1 267 1 267 3 0 2 -19 16 -43
29 -89 52 -126 152 -128 347 -1 63 -4 146 -8 185 l-6 69 -35 7 c-73 14 -169
18 -176 8z"/>
<path d="M6382 2798 c-45 -402 -206 -869 -425 -1233 -315 -525 -750 -932
-1294 -1212 -368 -190 -764 -305 -1193 -346 -19 -2 632 -5 1448 -5 l1482 -2 0
1450 c0 798 -1 1450 -3 1450 -2 0 -8 -46 -15 -102z"/>
<path d="M1 1433 l-1 -1433 1478 1 c1307 1 1464 3 1362 15 -613 73 -1176 308
-1655 691 -141 112 -376 347 -489 488 -376 470 -607 1020 -689 1640 -2 17 -5
-615 -6 -1402z"/>
<path d="M1902 2478 c-16 -8 -21 -16 -15 -27 12 -24 15 -310 4 -342 -10 -29
-10 -29 31 -29 32 0 39 3 34 16 -3 9 -6 101 -6 205 0 201 0 200 -48 177z"/>
<path d="M2155 2479 c-19 -9 -20 -20 -20 -204 l0 -195 39 0 c31 0 37 3 32 16
-3 9 -6 101 -6 205 0 199 0 200 -45 178z"/>
<path d="M4092 2478 c-16 -8 -21 -16 -15 -27 12 -24 15 -310 4 -342 -10 -29
-10 -29 31 -29 32 0 39 3 34 16 -3 9 -6 101 -6 205 0 201 0 200 -48 177z"/>
<path d="M1180 2431 c0 -6 5 -13 10 -16 6 -3 10 -21 10 -38 0 -24 3 -28 10
-17 11 18 6 24 75 -87 31 -51 60 -93 64 -93 4 0 13 12 19 26 10 20 9 28 0 38
-7 7 -38 54 -68 104 -51 86 -56 92 -87 92 -18 0 -33 -4 -33 -9z"/>
<path d="M1484 2428 c-4 -6 -7 -79 -8 -162 -1 -83 -5 -159 -10 -168 -7 -16 -3
-18 38 -18 43 0 46 2 36 19 -16 31 -13 280 4 314 15 27 15 27 -19 27 -19 0
-37 -5 -41 -12z"/>
<path d="M2020 2416 c-27 -33 18 -72 48 -42 13 13 14 20 6 34 -15 23 -38 26
-54 8z"/>
<path d="M3659 2369 c-22 -20 -30 -32 -21 -35 8 -4 12 -35 12 -102 0 -58 5
-107 13 -122 15 -29 55 -37 89 -19 l23 13 -30 6 c-27 5 -31 10 -38 55 -4 28
-5 89 -2 136 4 49 2 89 -3 93 -5 3 -24 -8 -43 -25z"/>
<path d="M4570 2270 l0 -131 40 -50 c51 -64 70 -130 70 -239 0 -201 -93 -370
-270 -490 -298 -203 -809 -210 -1181 -18 -42 21 -95 55 -117 74 -77 66 -131
220 -113 320 5 24 5 44 2 44 -11 0 -195 -200 -199 -215 -6 -24 204 -178 323
-237 213 -106 441 -152 750 -151 518 2 862 181 971 506 24 70 28 99 28 197 1
184 -41 306 -142 409 -55 56 -130 111 -152 111 -6 0 -10 -48 -10 -130z"/>
<path d="M1686 2327 c-16 -12 -14 -13 15 -9 62 6 73 -13 75 -122 1 -52 5 -100
9 -106 3 -5 16 -10 29 -10 22 0 22 2 18 93 -2 50 -8 104 -13 118 -17 44 -94
65 -133 36z"/>
<path d="M2035 2329 c-18 -9 -20 -20 -20 -129 l0 -120 39 0 c33 0 37 2 30 18
-5 9 -10 68 -12 130 -2 61 -6 112 -10 111 -4 0 -16 -5 -27 -10z"/>
<path d="M2303 2325 c-3 -9 -3 -18 0 -21 6 -7 47 18 47 28 0 15 -41 8 -47 -7z"/>
<path d="M2490 2330 c-12 -8 -10 -10 10 -10 14 0 36 -7 48 -16 20 -14 22 -24
22 -104 0 -107 4 -120 39 -120 27 0 28 1 24 58 -9 140 -13 161 -40 182 -27 21
-78 26 -103 10z"/>
<path d="M2710 2329 c-25 -9 -25 -10 -25 -129 l0 -120 37 0 c37 0 37 1 27 27
-5 15 -9 71 -7 125 1 53 0 99 -2 101 -3 2 -16 0 -30 -4z"/>
<path d="M2810 2330 c-12 -8 -11 -10 7 -10 42 0 56 -39 51 -145 l-4 -95 38 0
c35 0 38 2 28 19 -5 11 -10 60 -10 110 0 78 -3 94 -20 111 -21 21 -65 26 -90
10z"/>
<path d="M2980 2330 c-12 -8 -9 -10 12 -10 41 0 50 -28 46 -141 l-3 -99 36 0
36 0 -3 53 c-2 28 -5 78 -7 109 -4 69 -26 98 -71 98 -17 0 -38 -5 -46 -10z"/>
<path d="M3540 2311 c28 -24 36 -26 39 -13 4 19 -25 42 -53 42 -17 0 -15 -5
14 -29z"/>
<path d="M3800 2331 c0 -5 4 -12 8 -15 5 -3 31 -57 57 -121 27 -63 52 -115 56
-115 4 0 12 14 18 31 9 28 7 40 -24 105 -19 40 -37 84 -38 96 -3 18 -11 24
-40 26 -21 2 -37 -1 -37 -7z"/>
<path d="M4007 2333 c-3 -5 -2 -16 2 -26 6 -16 7 -16 23 2 9 11 14 22 11 25
-9 8 -31 7 -36 -1z"/>
<path d="M4349 2311 c17 -16 31 -36 31 -45 0 -10 9 -16 25 -16 42 0 25 49 -25
75 -50 26 -66 19 -31 -14z"/>
<path d="M3420 2310 c-44 -44 -21 -90 60 -120 67 -25 87 -48 70 -80 -15 -28 5
-26 24 2 21 30 20 71 -1 91 -10 8 -38 23 -63 33 -63 24 -72 34 -68 66 5 33 4
34 -22 8z"/>
<path d="M4232 2297 c-59 -62 -46 -174 24 -205 40 -19 94 -14 131 11 32 22 42
37 24 37 -6 0 -13 -4 -16 -10 -8 -13 -81 -13 -106 0 -44 24 -63 109 -35 163
18 33 7 35 -22 4z"/>
<path d="M2247 2242 c-15 -16 -13 -22 19 -80 36 -64 57 -82 95 -82 l22 0 -20
23 c-12 12 -38 52 -58 90 -20 37 -38 67 -39 67 -2 0 -10 -8 -19 -18z"/>
<path d="M1643 2200 c-27 -16 -33 -26 -33 -54 0 -19 7 -42 16 -50 24 -25 81
-20 109 9 34 33 31 50 -4 24 -23 -17 -33 -19 -49 -10 -31 16 -35 42 -12 73 24
33 17 35 -27 8z"/>
<path d="M2429 2191 c-33 -33 -36 -56 -13 -89 21 -31 83 -31 111 1 34 37 39
53 9 29 -34 -26 -49 -28 -70 -6 -22 21 -20 50 4 74 16 16 17 20 4 20 -8 0 -29
-13 -45 -29z"/>
<path d="M3400 2130 c0 -24 6 -33 27 -41 46 -17 50 -5 11 34 l-38 37 0 -30z"/>
<path d="M1200 2131 c0 -11 -3 -26 -6 -35 -5 -12 0 -16 20 -16 31 0 30 -2 10
38 -18 37 -24 40 -24 13z"/>
<path d="M3784 2015 c-10 -24 6 -37 39 -31 41 8 63 26 45 37 -22 14 -78 10
-84 -6z"/>
</g>
</svg>
